<svg width="150" height="150" viewBox="0 0 150 150" fill="none" xmlns="http://www.w3.org/2000/svg">
<path d="M75 150C116.421 150 150 116.421 150 75C150 33.5786 116.421 0 75 0C33.5786 0 0 33.5786 0 75C0 116.421 33.5786 150 75 150Z" fill="#295872"/>
<path d="M71.6698 82.4154V37.9966C71.6698 15.4245 37.5448 15.4231 37.5448 37.9966V82.4154C37.5448 104.989 71.6698 104.987 71.6698 82.4154Z" fill="#357599"/>
<path d="M62.8635 22.974C52.7525 17.9227 37.546 22.928 37.546 37.9981V82.4168C37.546 97.4871 52.7528 102.492 62.8635 97.4408C66.2221 94.4232 68.4533 89.932 68.4533 83.9648V36.4512C68.4533 30.4825 66.2221 25.9928 62.8635 22.9752V22.974Z" fill="#4292BF"/>
<path d="M71.6698 82.4153V60.206H37.5448V82.4153C37.5448 104.989 71.6698 104.987 71.6698 82.4153Z" fill="#EEF3F7"/>
<path d="M68.4536 83.9634V60.206H37.546V82.4153C37.546 97.4856 52.7528 102.491 62.8635 97.4394C66.2224 94.4221 68.4536 89.9306 68.4536 83.9634Z" fill="#FEFEFE"/>
<path d="M41.8477 60.206H44.2767V35.3297C44.2767 34.6611 43.7314 34.1144 43.0629 34.1144H43.0614C42.3929 34.1144 41.8462 34.6611 41.8462 35.3297V60.206H41.8477Z" fill="#67A8CD"/>
<path d="M112.453 67.5847V112.003C112.453 134.575 78.3275 134.577 78.3275 112.003V67.5847C78.3275 45.0114 112.453 45.0129 112.453 67.5847Z" fill="#357599"/>
<path d="M103.646 127.026C93.5352 132.077 78.3287 127.071 78.3287 112.002V67.5832C78.3287 52.5143 93.5355 47.5078 103.646 52.5592C107.005 55.5767 109.236 60.068 109.236 66.0351V113.549C109.236 119.517 107.005 124.007 103.646 127.025V127.026Z" fill="#4292BF"/>
<path d="M112.453 67.5847V89.794H78.3275V67.5847C78.3275 45.0114 112.453 45.0129 112.453 67.5847Z" fill="#EEF3F7"/>
<path d="M109.236 66.0369V89.7943H78.3287V67.585C78.3287 52.5161 93.5355 47.5096 103.646 52.5609C107.005 55.5779 109.236 60.0694 109.236 66.0369Z" fill="#FEFEFE"/>
<path d="M82.6304 89.794H85.0608V114.67C85.0608 115.339 84.5142 115.886 83.8471 115.886H83.8456C83.177 115.886 82.6304 115.339 82.6304 114.67V89.794Z" fill="#67A8CD"/>
<path d="M71.6698 60.2048H37.5469V61.1399H71.6698V60.2048Z" fill="#EEF3F7"/>
<path d="M112.45 89.7952H78.3275V90.7304H112.45V89.7952Z" fill="#EEF3F7"/>
</svg>
