<svg width="250" height="250" viewBox="0 0 250 250" fill="none" xmlns="http://www.w3.org/2000/svg">
<path d="M125 250C194.036 250 250 194.036 250 125C250 55.9644 194.036 0 125 0C55.9644 0 0 55.9644 0 125C0 194.036 55.9644 250 125 250Z" fill="#295872"/>
<path d="M119.45 137.359V63.3276C119.45 25.7075 62.5747 25.7051 62.5747 63.3276V137.359C62.5747 174.981 119.45 174.979 119.45 137.359Z" fill="#357599"/>
<path d="M104.772 38.29C87.9209 29.8711 62.5767 38.2134 62.5767 63.3301V137.361C62.5767 162.478 87.9214 170.82 104.772 162.401C110.37 157.372 114.089 149.887 114.089 139.941V60.7519C114.089 50.8042 110.37 43.3213 104.772 38.292V38.29Z" fill="#4292BF"/>
<path d="M119.45 137.359V100.343H62.5747V137.359C62.5747 174.981 119.45 174.979 119.45 137.359Z" fill="#EEF3F7"/>
<path d="M114.089 139.939V100.343H62.5767V137.359C62.5767 162.476 87.9214 170.818 104.772 162.399C110.371 157.37 114.089 149.884 114.089 139.939Z" fill="#FEFEFE"/>
<path d="M69.7461 100.343H73.7944V58.8828C73.7944 57.7686 72.8857 56.8574 71.7715 56.8574H71.769C70.6548 56.8574 69.7437 57.7686 69.7437 58.8828V100.343H69.7461Z" fill="#67A8CD"/>
<path d="M187.421 112.641V186.672C187.421 224.292 130.546 224.294 130.546 186.672V112.641C130.546 75.019 187.421 75.0215 187.421 112.641Z" fill="#357599"/>
<path d="M172.744 211.71C155.892 220.129 130.548 211.785 130.548 186.67V112.639C130.548 87.524 155.893 79.1797 172.744 87.5987C178.341 92.628 182.06 100.113 182.06 110.059V189.248C182.06 199.196 178.341 206.679 172.744 211.708V211.71Z" fill="#4292BF"/>
<path d="M187.421 112.641V149.657H130.546V112.641C130.546 75.019 187.421 75.0215 187.421 112.641Z" fill="#EEF3F7"/>
<path d="M182.061 110.062V149.657H130.548V112.642C130.548 87.5268 155.893 79.1826 172.744 87.6015C178.342 92.6299 182.061 100.116 182.061 110.062Z" fill="#FEFEFE"/>
<path d="M137.717 149.657H141.768V191.117C141.768 192.231 140.857 193.143 139.745 193.143H139.743C138.628 193.143 137.717 192.231 137.717 191.117V149.657Z" fill="#67A8CD"/>
<path d="M119.45 100.341H62.5781V101.9H119.45V100.341Z" fill="#EEF3F7"/>
<path d="M187.417 149.659H130.546V151.217H187.417V149.659Z" fill="#EEF3F7"/>
</svg>
